<?xml version="1.0"?><svg width="715.33868" height="471.7551" xmlns="http://www.w3.org/2000/svg">
 <defs>
  <filter id="filter7054" x="-0.066042" width="1.132084" y="-0.121007" height="1.242013">
   <feGaussianBlur stdDeviation="1.881325" id="feGaussianBlur7056"/>
  </filter>
  <filter id="filter7058" x="-0.048388" width="1.096775" y="-0.108718" height="1.217435">
   <feGaussianBlur stdDeviation="1.881325" id="feGaussianBlur7060"/>
  </filter>
  <filter id="filter7062" x="-0.04886" width="1.097721" y="-0.101729" height="1.203457">
   <feGaussianBlur stdDeviation="1.881325" id="feGaussianBlur7064"/>
  </filter>
 </defs>
 <metadata id="metadata7">image/svg+xml</metadata>
 <g>
  <title>Layer 1</title>
  <path id="path6729" d="m288.6633,297.484436c-17.81308,4.585663 56.80661,9.506378 58.939667,15.356812c3.96759,10.881714 -57.502106,29.532379 -87.690735,31.59964c-30.188568,2.067261 54.951721,-2.00766 77.627899,-0.885986c11.64975,0.576263 22.926849,4.771637 34.501251,4.134552c10.075562,-0.554596 7.394531,-5.500275 17.250671,-6.201813c18.463867,-1.314178 50.314331,6.201813 60.377197,5.020508c10.062866,-1.181305 -69.002563,-29.23703 -57.502136,-31.304291c11.500427,-2.067291 81.940552,-15.061523 70.440125,-22.739929c-8.625305,-1.328979 -37.838989,18.340271 -66.127441,15.947449c3.793396,-7.400848 29.469849,-16.390442 7.187744,-19.491333c-8.625305,-0.590668 1.028992,18.311707 -27.313477,18.605377c-13.784119,-1.310181 12.937988,-20.229675 -38.813934,-19.196045c-10.317688,0.206085 36.63974,15.697571 17.969391,18.162415c-16.630402,2.195526 -26.246887,-4.244232 -42.31308,-6.610443c-6.623596,-0.975494 -19.449615,-3.705566 -24.533142,-2.396912z" stroke-dashoffset="0" stroke-miterlimit="4" marker-end="none" marker-mid="none" marker-start="none" stroke-width="0.5" fill-rule="nonzero" fill="#8f5902"/>
  <path transform="rotate(4.94647, 341.984, 224.863)" id="path6161" d="m296.30426,93.319771c-24.843109,2.762154 -43.04007,22.682343 -40.61972,44.450798c0.654449,5.886353 2.761292,11.291519 5.961761,16.016068c-1.279144,0.769714 -2.496521,1.615433 -3.678375,2.488205c-8.814056,-5.80661 -20.156921,-8.719971 -32.145172,-7.387054c-24.843109,2.762177 -43.04007,22.682343 -40.619751,44.45079c1.986389,17.865799 17.252014,31.442902 36.393738,34.215698c-0.456696,2.56163 -0.804993,5.145767 -1.036316,7.754074c-4.515167,-0.758331 -9.250732,-0.91507 -14.099091,-0.376007c-24.843109,2.762161 -43.040039,22.682343 -40.619751,44.450806c2.332825,20.981506 22.968353,36.06131 46.702667,34.651489c-0.296783,2.583099 -0.323242,5.223419 -0.026703,7.890411c2.420288,21.768494 24.545868,37.182831 49.388977,34.420654c15.021606,-1.670166 27.604706,-9.615479 34.678192,-20.444214c15.192261,4.306488 31.748535,5.826538 48.82373,3.92804c20.470459,-2.27597 39.159424,-9.158081 54.827332,-19.317047c5.831482,3.102234 12.879456,4.557037 20.280701,3.734161c12.668579,-1.408569 22.907959,-9.105774 27.03595,-19.052124c8.485107,7.092773 20.446594,10.879974 33.189575,9.463165c22.87146,-2.542999 39.626099,-20.865204 37.397827,-40.905975c-1.620239,-14.572754 -12.845276,-26.057739 -27.637268,-30.262421c3.671326,-6.204834 5.433716,-13.32869 4.614685,-20.695053c-0.978455,-8.799942 -5.458618,-16.487808 -12.108887,-22.112656c5.22345,-7.354553 7.853516,-16.160294 6.836914,-25.303955c-2.146057,-19.301651 -19.790833,-33.618225 -41.079407,-34.689117c0.390991,-2.685913 0.458435,-5.430069 0.148254,-8.220337c-2.228271,-20.040802 -22.600708,-34.257652 -45.472107,-31.714706c-10.896973,1.211563 -20.407349,6.01458 -27.13562,12.870735c-3.391907,-0.378647 -6.913879,-0.406502 -10.487488,-0.009155c-8.081726,0.89856 -15.384827,3.783936 -21.371338,8.003593c-5.493225,-18.445335 -25.709839,-30.793129 -48.143311,-28.298866z" stroke-dashoffset="0" stroke-miterlimit="4" marker-end="none" marker-mid="none" marker-start="none" stroke-width="10.5" fill-rule="nonzero" fill="#5fb707"/>
  <path transform="rotate(37.6191, 430.461, 188.387)" id="path6876" d="m435.738037,173.461136c-19.833557,0 -36.233521,13.003082 -38.813904,29.851685c9.564148,-12.64534 28.196838,-21.226364 49.595581,-21.226364c6.100464,0 11.970886,0.708099 17.475281,1.9991c-7.130676,-6.54451 -17.152954,-10.62442 -28.256958,-10.62442z" filter="url(#filter7058)" stroke-dashoffset="0" stroke-miterlimit="4" marker-end="none" marker-mid="none" marker-start="none" stroke-width="0.5" fill-rule="nonzero" fill="#8ae234" opacity="0.95"/>
  <path transform="rotate(-56.3987, 277.676, 193.365)" d="m293.327881,184.760544c-16.476776,-11.040253 -37.339142,-9.366867 -48.861511,3.193756c14.984436,-5.18132 35.240112,-1.938217 53.017151,9.973282c5.067993,3.395798 9.550659,7.25177 13.404785,11.388245c-2.280884,-9.406097 -8.335754,-18.374298 -17.560425,-24.555283z" id="path6882" filter="url(#filter7062)" stroke-dashoffset="0" stroke-miterlimit="4" marker-end="none" marker-mid="none" marker-start="none" stroke-width="0.5" fill-rule="nonzero" fill="#8ae234" opacity="0.95"/>
  <path transform="rotate(52.3385, 364.539, 169.643)" id="path6884" d="m352.960022,162.408478c12.190125,-9.281372 27.624878,-7.874588 36.149536,2.684937c-11.085999,-4.35585 -26.071899,-1.629425 -39.223999,8.384415c-3.749451,2.854782 -7.065857,6.096466 -9.917358,9.573944c1.6875,-7.907593 6.167114,-15.447037 12.991821,-20.643295z" filter="url(#filter7054)" stroke-dashoffset="0" stroke-miterlimit="4" marker-end="none" marker-mid="none" marker-start="none" stroke-width="0.5" fill-rule="nonzero" fill="#8ae234" opacity="0.95"/>
  <path transform="rotate(-116.568, 444.988, 256.17)" d="m440.10553,275.827118c-16.892151,-10.393463 -24.045898,-30.062271 -17.414429,-45.76442c1.519165,15.781952 12.891846,32.854538 31.117126,44.068222c5.19574,3.196869 10.566589,5.670044 15.931213,7.455017c-9.502747,1.837219 -20.176636,0.060089 -29.633911,-5.75882z" id="path7066" filter="url(#filter7058)" stroke-dashoffset="0" stroke-miterlimit="4" marker-end="none" marker-mid="none" marker-start="none" stroke-width="0.5" fill-rule="nonzero" fill="#4e9a06" opacity="0.95"/>
  <path transform="rotate(74.1954, 282.23, 282.082)" id="path7068" d="m301.343506,288.412384c-12.264465,15.587006 -32.624664,20.434845 -47.461426,12.044128c15.85199,0.303131 34.117584,-9.033905 47.349884,-25.850922c3.772369,-4.794312 6.845917,-9.845642 9.235077,-14.969757c0.733856,9.650818 -2.257202,20.050049 -9.123535,28.77655z" filter="url(#filter7062)" stroke-dashoffset="0" stroke-miterlimit="4" marker-end="none" marker-mid="none" marker-start="none" stroke-width="0.5" fill-rule="nonzero" fill="#4e9a06" opacity="0.95"/>
  <path transform="rotate(-31.9944, 381.289, 292.75)" d="m369.710266,299.983124c12.190125,9.281372 27.624878,7.874603 36.149536,-2.684967c-11.085999,4.355865 -26.071899,1.629456 -39.223999,-8.384399c-3.749512,-2.854767 -7.065918,-6.096466 -9.917358,-9.573944c1.687439,7.907593 6.167053,15.447021 12.991821,20.643311z" id="path7070" filter="url(#filter7054)" stroke-dashoffset="0" stroke-miterlimit="4" marker-end="none" marker-mid="none" marker-start="none" stroke-width="0.5" fill-rule="nonzero" fill="#4e9a06" opacity="0.95"/>
 </g>
</svg>